<svg width="56" height="57" viewBox="0 0 56 57" fill="none" xmlns="http://www.w3.org/2000/svg">
<path d="M54.732 4.51949C55.7602 3.49136 55.7602 1.82886 54.732 0.811675C53.7039 -0.205512 52.0414 -0.21645 51.0242 0.811675L42.8648 8.94918C38.6648 5.56949 33.3164 3.53511 27.4977 3.53511C13.968 3.53511 2.99766 14.5054 2.99766 28.0351C2.99766 33.8539 5.03203 39.2023 8.41172 43.4023L0.263281 51.5507C-0.764844 52.5789 -0.764844 54.2414 0.263281 55.2585C1.29141 56.2757 2.95391 56.2867 3.97109 55.2585L12.1195 47.1101C16.3195 50.5007 21.668 52.5242 27.4867 52.5242C41.0164 52.5242 51.9867 41.5539 51.9867 28.0242C51.9867 22.2054 49.9523 16.857 46.5727 12.657L54.732 4.51949ZM39.1242 12.6898L12.1523 39.6617C9.70234 36.4351 8.24766 32.3992 8.24766 28.0351C8.24766 17.4039 16.8664 8.78511 27.4977 8.78511C31.8617 8.78511 35.8977 10.2398 39.1242 12.6898ZM15.8711 43.3804L42.843 16.4086C45.293 19.6351 46.7477 23.6711 46.7477 28.0351C46.7477 38.6664 38.1289 47.2851 27.4977 47.2851C23.1336 47.2851 19.0977 45.8304 15.8711 43.3804Z" fill="#455875"/>
</svg>
